<?xml version="1.0" encoding="utf-8"?>
<!-- Generator: Adobe Illustrator 15.1.0, SVG Export Plug-In . SVG Version: 6.00 Build 0)  -->
<!DOCTYPE svg PUBLIC "-//W3C//DTD SVG 1.1//EN" "http://www.w3.org/Graphics/SVG/1.1/DTD/svg11.dtd">
<svg version="1.1" id="Layer_1" xmlns="http://www.w3.org/2000/svg" xmlns:xlink="http://www.w3.org/1999/xlink" x="0px" y="0px"
	 width="228.797px" height="228.797px" viewBox="0 0 228.797 228.797" enable-background="new 0 0 228.797 228.797"
	 xml:space="preserve">
<g>
	<path d="M115.91,113.766v5.186h5.186v1.992h-5.186v5.186h-1.992v-5.186h-5.186v-1.992h5.186v-5.186H115.91z"/>
</g>
<g>
	<path d="M87.82,141.355h-4.902V97.337h7.238c3.795,0,7.707,0.116,10.918,2.335c3.27,2.277,4.961,6.13,4.961,10.042
		c0,3.561-1.459,7.181-4.203,9.458c-2.977,2.451-6.771,2.918-10.449,2.918H87.82V141.355z M87.82,117.536h3.27
		c5.43,0,10.043-1.635,10.043-7.939c0-7.181-5.781-7.706-11.502-7.706H87.82V117.536z"/>
	<path d="M131.789,141.355h-4.902V97.337h7.238c3.795,0,7.707,0.116,10.918,2.335c3.27,2.277,4.961,6.13,4.961,10.042
		c0,3.561-1.459,7.181-4.203,9.458c-2.977,2.451-6.771,2.918-10.449,2.918h-3.562V141.355z M131.789,117.536h3.27
		c5.43,0,10.043-1.635,10.043-7.939c0-7.181-5.781-7.706-11.502-7.706h-1.811V117.536z"/>
</g>
<g>
	<path d="M30.137,136.402c0.098-0.021,0.205,0.047,0.229,0.145l0.207,0.904c0.021,0.096-0.047,0.205-0.143,0.229l-6.445,1.473
		c-0.098,0.023-0.205-0.045-0.227-0.141l-0.209-0.906c-0.021-0.098,0.047-0.205,0.143-0.227L30.137,136.402z"/>
	<path d="M32.434,144.541c0.096-0.033,0.201,0.023,0.234,0.117l0.086,0.234l-2.732,5.42l0.004,0.012l3.881-1.412
		c0.094-0.035,0.207,0.01,0.244,0.113l0.314,0.865c0.035,0.094-0.02,0.209-0.113,0.242l-6.326,2.301
		c-0.094,0.035-0.199-0.023-0.234-0.117l-0.082-0.227l2.887-5.496l-0.004-0.01l-4.043,1.471c-0.094,0.033-0.205-0.012-0.242-0.113
		l-0.311-0.855c-0.035-0.096,0.02-0.211,0.113-0.246L32.434,144.541z"/>
	<path d="M36.893,157.949l-0.713-1.348c-0.053-0.098-0.01-0.211,0.078-0.258l0.723-0.383c0.088-0.047,0.205-0.018,0.256,0.078
		l2.041,3.855c0.051,0.098,0.01,0.209-0.078,0.256l-0.725,0.383c-0.088,0.047-0.203,0.018-0.256-0.078l-0.715-1.35l-4.947,2.619
		c-0.088,0.047-0.209,0.01-0.256-0.08l-0.434-0.82c-0.047-0.086-0.01-0.207,0.078-0.254L36.893,157.949z"/>
	<path d="M42.557,165.594c0.082-0.057,0.201-0.043,0.264,0.047l2.336,3.328c0.062,0.092,0.035,0.207-0.047,0.266l-0.67,0.471
		c-0.082,0.057-0.201,0.043-0.266-0.047l-1.697-2.42l-1.342,0.941l1.418,2.02c0.057,0.082,0.035,0.207-0.047,0.264l-0.68,0.477
		c-0.09,0.062-0.207,0.035-0.264-0.047l-1.418-2.02l-1.43,1.004l1.697,2.42c0.064,0.09,0.035,0.207-0.047,0.266l-0.67,0.469
		c-0.082,0.059-0.201,0.045-0.264-0.045l-2.336-3.33c-0.062-0.09-0.035-0.207,0.047-0.264L42.557,165.594z"/>
	<path d="M49.348,174.504c0.074-0.066,0.193-0.07,0.27,0.012l1.938,2.102c0.812,0.883,0.77,2.254-0.105,3.061
		c-0.676,0.623-1.641,0.684-2.488,0.279l-0.939,2.73c-0.049,0.139-0.213,0.195-0.328,0.07l-0.713-0.771
		c-0.061-0.066-0.057-0.139-0.041-0.178l1.047-2.775l-0.752-0.814l-1.875,1.727c-0.074,0.066-0.201,0.062-0.268-0.012l-0.623-0.676
		c-0.076-0.082-0.062-0.201,0.01-0.27L49.348,174.504z M49.133,178.699c0.359,0.389,1.01,0.416,1.422,0.035
		c0.389-0.357,0.4-0.994,0.043-1.383l-1.105-1.199l-1.463,1.348L49.133,178.699z"/>
	<path d="M57.814,182.965c0.064-0.074,0.191-0.084,0.268-0.02l0.703,0.605c0.076,0.064,0.086,0.191,0.021,0.266l-4.305,5.012
		c-0.064,0.074-0.191,0.086-0.266,0.02l-0.705-0.605c-0.074-0.062-0.084-0.191-0.02-0.266L57.814,182.965z"/>
	<path d="M67.162,189.711c1.666,1.105,2.111,3.328,1.006,4.996c-1.105,1.666-3.316,2.105-4.982,1.002s-2.113-3.307-1.008-4.975
		C63.283,189.068,65.496,188.605,67.162,189.711z M63.904,194.625c1.049,0.695,2.484,0.414,3.18-0.637
		c0.697-1.051,0.41-2.5-0.639-3.195c-1.051-0.695-2.488-0.391-3.186,0.66C62.564,192.504,62.854,193.93,63.904,194.625z"/>
	<path d="M75.883,195.154c0.043-0.09,0.152-0.139,0.252-0.092l2.584,1.215c1.084,0.508,1.562,1.791,1.057,2.867
		c-0.391,0.83-1.26,1.25-2.193,1.195l0.16,2.875c0.008,0.148-0.123,0.262-0.277,0.191l-0.947-0.445
		c-0.082-0.039-0.105-0.105-0.107-0.148l-0.076-2.959l-1.004-0.471l-1.082,2.303c-0.041,0.092-0.162,0.135-0.252,0.092l-0.83-0.391
		c-0.1-0.047-0.135-0.162-0.092-0.252L75.883,195.154z M77.266,199.111c0.479,0.225,1.09,0.006,1.328-0.502
		c0.225-0.479-0.006-1.07-0.484-1.297l-1.473-0.691l-0.844,1.799L77.266,199.111z"/>
	<path d="M94.176,201.908c0.02-0.098,0.117-0.17,0.215-0.15l2.314,0.484c1.885,0.396,3.105,2.252,2.713,4.127
		c-0.396,1.895-2.26,3.105-4.145,2.709l-2.314-0.484c-0.098-0.02-0.158-0.123-0.137-0.221L94.176,201.908z M95.406,207.863
		c1.27,0.266,2.396-0.496,2.664-1.777c0.268-1.27-0.461-2.42-1.73-2.686l-1.113-0.232l-0.934,4.463L95.406,207.863z"/>
	<path d="M106.709,203.969c0.006-0.1,0.092-0.184,0.203-0.176l4.061,0.285c0.109,0.008,0.184,0.104,0.176,0.203l-0.057,0.818
		c-0.008,0.1-0.094,0.186-0.203,0.178l-2.953-0.209l-0.115,1.637l2.465,0.174c0.1,0.008,0.184,0.102,0.176,0.203l-0.059,0.828
		c-0.008,0.109-0.104,0.184-0.203,0.176l-2.465-0.174l-0.123,1.748l2.955,0.207c0.109,0.008,0.184,0.102,0.176,0.203l-0.059,0.816
		c-0.006,0.102-0.092,0.186-0.201,0.178l-4.062-0.287c-0.109-0.008-0.184-0.102-0.176-0.203L106.709,203.969z"/>
	<path d="M117.852,210.133l0.324-0.637c0.072-0.145,0.242-0.154,0.336-0.09c0.053,0.027,0.893,0.572,1.541,0.537
		c0.52-0.029,0.889-0.389,0.865-0.818c-0.027-0.51-0.475-0.836-1.332-1.129c-0.959-0.328-1.93-0.875-1.996-2.051
		c-0.049-0.889,0.555-1.953,2.141-2.039c1.018-0.059,1.824,0.418,2.033,0.559c0.104,0.055,0.143,0.223,0.078,0.324l-0.348,0.59
		c-0.074,0.125-0.219,0.213-0.344,0.141c-0.082-0.047-0.869-0.504-1.418-0.473c-0.568,0.031-0.855,0.426-0.838,0.746
		c0.025,0.469,0.412,0.768,1.238,1.053c0.99,0.336,2.139,0.854,2.209,2.141c0.057,1.027-0.779,2.025-2.186,2.102
		c-1.258,0.068-2.029-0.479-2.238-0.658C117.822,210.346,117.77,210.299,117.852,210.133z"/>
	<path d="M128.59,203.25c-0.018-0.1,0.057-0.203,0.156-0.219l0.916-0.154c0.098-0.018,0.201,0.057,0.219,0.156l1.09,6.525
		c0.018,0.098-0.057,0.203-0.154,0.219l-0.918,0.152c-0.098,0.016-0.201-0.057-0.219-0.156L128.59,203.25z"/>
	<path d="M139.77,200.391c0.861-0.254,1.785-0.164,2.602,0.199c0.1,0.055,0.143,0.166,0.09,0.266l-0.41,0.799
		c-0.055,0.1-0.141,0.125-0.25,0.072c-0.52-0.24-1.084-0.281-1.611-0.125c-1.197,0.354-1.842,1.66-1.488,2.859
		c0.354,1.188,1.6,1.912,2.807,1.555c0.537-0.16,0.9-0.445,1.07-0.578l-0.242-0.812l-0.766,0.227
		c-0.105,0.031-0.205-0.023-0.234-0.119l-0.225-0.756c-0.031-0.105,0.023-0.207,0.129-0.238l1.84-0.543
		c0.096-0.029,0.197,0.035,0.227,0.129l0.727,2.453c0.021,0.078-0.002,0.137-0.031,0.176c0,0-0.803,0.916-2.191,1.328
		c-1.908,0.564-3.889-0.496-4.457-2.412S137.861,200.957,139.77,200.391z"/>
	<path d="M148.67,197.426c-0.041-0.09,0.006-0.201,0.098-0.242l0.227-0.105l5.631,2.254l0.01-0.004l-1.74-3.744
		c-0.041-0.092-0.008-0.205,0.092-0.252l0.834-0.387c0.092-0.043,0.211,0,0.254,0.09l2.834,6.102
		c0.041,0.09-0.006,0.201-0.098,0.242l-0.217,0.102l-5.723-2.398l-0.008,0.004l1.811,3.896c0.043,0.092,0.008,0.205-0.092,0.252
		l-0.826,0.383c-0.09,0.043-0.209,0-0.252-0.092L148.67,197.426z"/>
	<path d="M169.717,192.188l-0.094-0.711c-0.021-0.16,0.111-0.262,0.227-0.262c0.057-0.008,1.059-0.035,1.572-0.434
		c0.41-0.316,0.512-0.824,0.248-1.164c-0.311-0.402-0.865-0.416-1.736-0.172c-0.975,0.273-2.084,0.373-2.805-0.559
		c-0.543-0.705-0.648-1.922,0.607-2.893c0.807-0.623,1.74-0.688,1.99-0.689c0.115-0.016,0.242,0.102,0.248,0.223l0.049,0.684
		c0.01,0.143-0.061,0.297-0.205,0.309c-0.094,0.008-0.998,0.078-1.434,0.414c-0.451,0.348-0.463,0.836-0.268,1.09
		c0.285,0.371,0.773,0.398,1.615,0.164c1.006-0.283,2.244-0.508,3.031,0.512c0.629,0.812,0.506,2.107-0.609,2.969
		c-0.996,0.77-1.941,0.754-2.215,0.727C169.814,192.377,169.744,192.367,169.717,192.188z"/>
	<path d="M176.072,180.463l-1.088,1.074c-0.078,0.076-0.197,0.068-0.268-0.002l-0.576-0.582c-0.07-0.072-0.076-0.191,0.002-0.27
		l3.107-3.066c0.078-0.078,0.197-0.07,0.268,0l0.576,0.584c0.07,0.072,0.076,0.191-0.002,0.268l-1.088,1.074l3.938,3.988
		c0.07,0.072,0.07,0.199-0.002,0.27l-0.66,0.652c-0.072,0.07-0.199,0.07-0.27,0L176.072,180.463z"/>
	<path d="M181.711,172.918c-0.078-0.062-0.094-0.188-0.033-0.266l0.584-0.752c0.066-0.088,0.188-0.096,0.266-0.033l3.232,2.508
		c0.672,0.521,1.559,0.475,2.092-0.213c0.533-0.689,0.365-1.564-0.299-2.08l-3.24-2.516c-0.078-0.062-0.102-0.18-0.033-0.266
		l0.582-0.752c0.062-0.08,0.188-0.096,0.268-0.033l3.287,2.551c1.201,0.934,1.432,2.645,0.463,3.893
		c-0.963,1.24-2.678,1.443-3.879,0.51L181.711,172.918z"/>
	<path d="M189.072,162.609c-0.086-0.051-0.125-0.164-0.076-0.25l1.164-2.062c0.949-1.678,3.09-2.281,4.76-1.338
		c1.688,0.953,2.277,3.1,1.328,4.777l-1.164,2.061c-0.049,0.088-0.166,0.113-0.254,0.064L189.072,162.609z M195.129,163.242
		c0.639-1.131,0.254-2.438-0.887-3.082c-1.131-0.641-2.449-0.295-3.088,0.836l-0.561,0.992l3.975,2.246L195.129,163.242z"/>
	<path d="M194.811,151.277c-0.094-0.039-0.143-0.156-0.104-0.248l0.354-0.861c0.039-0.09,0.156-0.141,0.248-0.102l6.123,2.525
		c0.092,0.037,0.141,0.154,0.102,0.248l-0.354,0.859c-0.039,0.094-0.156,0.141-0.248,0.104L194.811,151.277z"/>
	<path d="M198.307,140.277c0.525-1.93,2.498-3.049,4.426-2.523c1.93,0.523,3.043,2.484,2.518,4.414
		c-0.525,1.928-2.477,3.043-4.404,2.52C198.916,144.162,197.781,142.207,198.307,140.277z M203.996,141.826
		c0.33-1.217-0.391-2.49-1.605-2.818c-1.215-0.332-2.5,0.395-2.83,1.609c-0.332,1.217,0.41,2.484,1.627,2.816
		C202.402,143.764,203.666,143.041,203.996,141.826z"/>
</g>
<g>
	<path d="M38.992,89.754l-0.377,1.002l-15.74-5.938l1.047-2.775c0.465-1.232,0.998-2.391,2.203-3.057
		c1.176-0.653,2.539-0.663,3.77-0.199c1.127,0.426,2.215,1.336,2.615,2.488c0.473,1.275,0.143,2.653-0.32,3.885l-0.67,1.774
		L38.992,89.754z M31.266,84.765c0.385-1.023,0.605-1.988,0.184-3.078c-0.367-0.925-1.055-1.566-1.975-1.913
		c-0.98-0.37-2.111-0.343-2.994,0.229c-0.904,0.565-1.305,1.559-1.666,2.52l-0.621,1.648l6.387,2.409L31.266,84.765z"/>
	<path d="M49.938,54.897c3.752,2.886,4.414,8.437,1.527,12.188c-2.885,3.752-8.418,4.539-12.172,1.653
		c-3.752-2.886-4.426-8.418-1.527-12.188C40.65,52.799,46.186,52.013,49.938,54.897z M39.947,67.89
		c3.291,2.531,8.162,1.911,10.721-1.416c2.547-3.311,1.891-8.208-1.385-10.727c-3.291-2.531-8.176-1.894-10.721,1.417
		C36.004,60.491,36.654,65.358,39.947,67.89z"/>
	<path d="M65.889,51.048l3.439-2.555l0.598,0.806l-4.299,3.193L55.594,38.985l0.861-0.639L65.889,51.048z"/>
	<path d="M81.314,42.952l-0.969,0.456l-7.156-15.233l0.969-0.455L81.314,42.952z"/>
	<path d="M98.389,22.927c-0.996-1.019-2.207-1.557-3.756-1.223c-1.768,0.381-2.793,2.085-2.422,3.81
		c0.371,1.724,2.162,2.091,3.629,2.438l3.494,0.959c1.414,0.518,2.264,1.386,2.582,2.869c0.588,2.728-1.457,5.314-4.119,5.888
		c-2.291,0.493-4.387-0.539-5.605-2.491l0.826-0.612c1.074,1.596,2.625,2.54,4.611,2.112c2.16-0.465,3.691-2.576,3.221-4.758
		c-0.398-1.855-2.467-2.231-4.035-2.624l-3.307-0.933c-1.236-0.441-2.053-1.27-2.336-2.579c-0.525-2.443,0.848-4.543,3.314-5.074
		c1.658-0.357,3.422,0.199,4.512,1.448L98.389,22.927z"/>
	<path d="M126.643,26.566l0.527-7.119l1.068,0.078l-1.242,16.775l-1.068-0.079l0.643-8.654l-10.189-0.755l-0.643,8.654l-1.066-0.079
		l1.242-16.774l1.068,0.079l-0.527,7.119L126.643,26.566z"/>
	<path d="M147.141,29.999l3.111,1.236l-1.49,3.756l3.756,1.491l-1.236,3.113l-3.756-1.492l-1.5,3.777l-3.111-1.236l1.498-3.776
		l-3.756-1.491l1.236-3.113l3.756,1.491L147.141,29.999z"/>
	<path d="M161.67,50.666l-0.85-0.652l10.24-13.346l2.354,1.807c1.045,0.801,1.998,1.646,2.287,2.992
		c0.285,1.314-0.1,2.623-0.9,3.667c-0.734,0.956-1.92,1.732-3.139,1.781c-1.357,0.084-2.582-0.63-3.625-1.432l-1.506-1.154
		L161.67,50.666z M168.684,44.714c0.867,0.666,1.727,1.157,2.893,1.067c0.992-0.083,1.805-0.556,2.402-1.335
		c0.639-0.832,0.939-1.922,0.646-2.934c-0.277-1.029-1.113-1.698-1.928-2.323l-1.398-1.073l-4.156,5.417L168.684,44.714z"/>
	<path d="M191.896,71.208c-3.844,2.762-9.348,1.798-12.111-2.045c-2.762-3.844-1.922-9.368,1.92-12.131
		c3.844-2.763,9.336-1.816,12.111,2.045C196.578,62.92,195.738,68.445,191.896,71.208z M182.33,57.902
		c-3.371,2.424-4.18,7.266-1.729,10.674c2.436,3.39,7.314,4.172,10.668,1.762c3.373-2.424,4.168-7.285,1.73-10.675
		C190.551,56.255,185.703,55.479,182.33,57.902z"/>
	<path d="M190,87.737l-0.346-1.016l15.947-5.407l0.953,2.812c0.424,1.248,0.748,2.482,0.238,3.763
		c-0.494,1.253-1.543,2.127-2.789,2.55c-1.143,0.388-2.562,0.374-3.604-0.264c-1.176-0.686-1.797-1.961-2.221-3.209l-0.609-1.797
		L190,87.737z M199.146,86.687c0.352,1.036,0.793,1.924,1.814,2.498c0.871,0.482,1.811,0.541,2.74,0.226
		c0.994-0.337,1.852-1.076,2.172-2.08c0.34-1.012,0.018-2.034-0.312-3.007l-0.566-1.671l-6.473,2.194L199.146,86.687z"/>
</g>
<g>
	<path d="M81.123,73.318c0.688,0,1.184,0.231,1.646,0.633c0.062,0.055,0.062,0.137,0.008,0.19l-0.299,0.307
		c-0.049,0.062-0.109,0.062-0.172,0c-0.318-0.279-0.754-0.456-1.176-0.456c-0.975,0-1.709,0.816-1.709,1.77s0.742,1.763,1.715,1.763
		c0.496,0,0.844-0.197,1.17-0.449c0.062-0.048,0.123-0.041,0.164-0.007l0.312,0.307c0.055,0.047,0.041,0.136-0.006,0.184
		c-0.463,0.449-1.049,0.66-1.654,0.66c-1.361,0-2.457-1.082-2.457-2.443S79.762,73.318,81.123,73.318z"/>
	<path d="M87.162,73.516c0-0.067,0.061-0.129,0.129-0.129h0.449c0.074,0,0.129,0.062,0.129,0.129v1.899h2.492v-1.899
		c0-0.067,0.055-0.129,0.129-0.129h0.449c0.068,0,0.129,0.062,0.129,0.129v4.506c0,0.067-0.061,0.129-0.129,0.129H90.49
		c-0.074,0-0.129-0.062-0.129-0.129v-1.967h-2.492v1.967c0,0.067-0.055,0.129-0.129,0.129h-0.449c-0.068,0-0.129-0.062-0.129-0.129
		V73.516z"/>
	<path d="M95.16,77.974l2.09-4.58c0.021-0.041,0.082-0.075,0.115-0.075h0.068c0.035,0,0.096,0.034,0.115,0.075l2.076,4.58
		c0.041,0.088-0.014,0.177-0.115,0.177h-0.43c-0.08,0-0.129-0.041-0.156-0.103l-0.422-0.932h-2.225
		c-0.137,0.312-0.279,0.619-0.416,0.932c-0.02,0.048-0.074,0.103-0.156,0.103h-0.428C95.174,78.15,95.121,78.062,95.16,77.974z
		 M98.244,76.53l-0.838-1.864h-0.033l-0.83,1.864H98.244z"/>
	<path d="M103.717,73.516c0-0.067,0.055-0.129,0.129-0.129h1.852c0.816,0,1.484,0.646,1.484,1.456c0,0.626-0.416,1.144-1.008,1.382
		l0.932,1.729c0.049,0.088,0,0.197-0.115,0.197h-0.531c-0.055,0-0.096-0.034-0.109-0.062l-0.904-1.803h-1.027v1.735
		c0,0.067-0.061,0.129-0.129,0.129h-0.443c-0.074,0-0.129-0.062-0.129-0.129V73.516z M105.643,75.7c0.443,0,0.83-0.374,0.83-0.844
		c0-0.442-0.387-0.81-0.83-0.81h-1.211V75.7H105.643z"/>
	<path d="M111.654,73.516c0-0.067,0.055-0.129,0.129-0.129h0.449c0.068,0,0.129,0.062,0.129,0.129v4.002h1.846
		c0.074,0,0.129,0.062,0.129,0.129v0.375c0,0.067-0.055,0.129-0.129,0.129h-2.424c-0.074,0-0.129-0.062-0.129-0.129V73.516z"/>
	<path d="M118.461,73.516c0-0.067,0.055-0.129,0.129-0.129h2.723c0.074,0,0.129,0.062,0.129,0.129v0.382
		c0,0.067-0.055,0.129-0.129,0.129h-2.15v1.389h1.816c0.068,0,0.129,0.061,0.129,0.129v0.381c0,0.075-0.061,0.13-0.129,0.13h-1.816
		v1.463h2.15c0.074,0,0.129,0.062,0.129,0.129v0.375c0,0.067-0.055,0.129-0.129,0.129h-2.723c-0.074,0-0.129-0.062-0.129-0.129
		V73.516z"/>
	<path d="M125.572,77.463c0.062-0.088,0.115-0.19,0.178-0.279c0.061-0.088,0.156-0.115,0.23-0.054c0.041,0.034,0.564,0.47,1.09,0.47
		c0.469,0,0.768-0.286,0.768-0.634c0-0.408-0.354-0.667-1.027-0.945c-0.693-0.293-1.238-0.653-1.238-1.443
		c0-0.53,0.408-1.259,1.49-1.259c0.682,0,1.191,0.354,1.26,0.401c0.055,0.034,0.109,0.13,0.041,0.231
		c-0.055,0.082-0.115,0.177-0.17,0.259c-0.055,0.089-0.143,0.13-0.238,0.068c-0.049-0.027-0.525-0.341-0.92-0.341
		c-0.57,0-0.768,0.361-0.768,0.613c0,0.388,0.299,0.626,0.863,0.857c0.789,0.319,1.463,0.693,1.463,1.524
		c0,0.707-0.633,1.286-1.518,1.286c-0.83,0-1.354-0.436-1.463-0.538C125.553,77.626,125.504,77.579,125.572,77.463z"/>
	<path d="M133.596,74.026h-1.107c-0.076,0-0.131-0.062-0.131-0.129v-0.382c0-0.067,0.055-0.129,0.131-0.129h2.926
		c0.074,0,0.129,0.062,0.129,0.129v0.382c0,0.067-0.055,0.129-0.129,0.129h-1.109v3.995c0,0.067-0.062,0.129-0.129,0.129h-0.449
		c-0.068,0-0.131-0.062-0.131-0.129V74.026z"/>
	<path d="M141.717,73.318c1.361,0,2.451,1.096,2.451,2.457s-1.09,2.443-2.451,2.443s-2.443-1.082-2.443-2.443
		S140.355,73.318,141.717,73.318z M141.717,77.538c0.973,0,1.77-0.79,1.77-1.763c0-0.967-0.797-1.776-1.77-1.776
		c-0.967,0-1.762,0.81-1.762,1.776C139.955,76.748,140.75,77.538,141.717,77.538z"/>
	<path d="M148.553,73.441c0-0.068,0.061-0.123,0.129-0.123h0.17l2.955,3.416h0.006v-3.219c0-0.067,0.055-0.129,0.129-0.129h0.436
		c0.068,0,0.129,0.062,0.129,0.129v4.58c0,0.068-0.061,0.123-0.129,0.123h-0.176l-2.955-3.512h-0.006v3.314
		c0,0.067-0.055,0.129-0.129,0.129h-0.43c-0.068,0-0.129-0.062-0.129-0.129V73.441z"/>
</g>
<g>
	<path d="M97.15,161.59c0.062-0.09,0.115-0.191,0.178-0.281c0.061-0.086,0.156-0.113,0.23-0.053c0.041,0.033,0.564,0.471,1.09,0.471
		c0.469,0,0.768-0.287,0.768-0.635c0-0.408-0.354-0.666-1.027-0.945c-0.693-0.293-1.238-0.654-1.238-1.443
		c0-0.531,0.408-1.258,1.49-1.258c0.682,0,1.191,0.354,1.26,0.4c0.055,0.033,0.109,0.131,0.041,0.232
		c-0.055,0.082-0.115,0.176-0.17,0.258c-0.055,0.09-0.143,0.129-0.238,0.068c-0.049-0.027-0.525-0.342-0.92-0.342
		c-0.57,0-0.768,0.363-0.768,0.613c0,0.389,0.299,0.627,0.863,0.859c0.789,0.318,1.463,0.691,1.463,1.523
		c0,0.707-0.633,1.285-1.518,1.285c-0.83,0-1.354-0.434-1.463-0.537C97.131,161.752,97.082,161.705,97.15,161.59z"/>
	<path d="M106.617,157.445c1.361,0,2.451,1.094,2.451,2.457c0,1.359-1.09,2.441-2.451,2.441s-2.443-1.082-2.443-2.441
		C104.174,158.539,105.256,157.445,106.617,157.445z M106.617,161.664c0.973,0,1.77-0.789,1.77-1.762
		c0-0.969-0.797-1.777-1.77-1.777c-0.967,0-1.762,0.809-1.762,1.777C104.855,160.875,105.65,161.664,106.617,161.664z"/>
	<path d="M113.393,157.641c0-0.066,0.061-0.129,0.129-0.129h0.455c0.076,0,0.129,0.062,0.129,0.129v2.812
		c0,0.68,0.436,1.211,1.131,1.211c0.701,0,1.143-0.523,1.143-1.199v-2.824c0-0.066,0.055-0.129,0.129-0.129h0.457
		c0.068,0,0.129,0.062,0.129,0.129v2.859c0,1.035-0.783,1.844-1.857,1.844c-1.068,0-1.844-0.809-1.844-1.844V157.641z"/>
	<path d="M122.416,158.152h-1.107c-0.076,0-0.131-0.062-0.131-0.129v-0.383c0-0.066,0.055-0.129,0.131-0.129h2.926
		c0.074,0,0.129,0.062,0.129,0.129v0.383c0,0.066-0.055,0.129-0.129,0.129h-1.109v3.996c0,0.066-0.062,0.129-0.129,0.129h-0.449
		c-0.068,0-0.131-0.062-0.131-0.129V158.152z"/>
	<path d="M128.508,157.641c0-0.066,0.061-0.129,0.129-0.129h0.449c0.074,0,0.129,0.062,0.129,0.129v1.9h2.492v-1.9
		c0-0.066,0.055-0.129,0.129-0.129h0.449c0.068,0,0.129,0.062,0.129,0.129v4.508c0,0.066-0.061,0.129-0.129,0.129h-0.449
		c-0.074,0-0.129-0.062-0.129-0.129v-1.969h-2.492v1.969c0,0.066-0.055,0.129-0.129,0.129h-0.449c-0.068,0-0.129-0.062-0.129-0.129
		V157.641z"/>
	<path d="M87.961,168.344c0.688,0,1.184,0.232,1.646,0.633c0.062,0.055,0.062,0.137,0.008,0.191l-0.299,0.307
		c-0.049,0.061-0.109,0.061-0.172,0c-0.318-0.279-0.754-0.455-1.176-0.455c-0.975,0-1.709,0.816-1.709,1.77s0.742,1.762,1.715,1.762
		c0.496,0,0.844-0.197,1.17-0.449c0.062-0.047,0.123-0.041,0.164-0.008l0.312,0.309c0.055,0.047,0.041,0.135-0.006,0.184
		c-0.463,0.449-1.049,0.66-1.654,0.66c-1.361,0-2.457-1.082-2.457-2.445C85.504,169.441,86.6,168.344,87.961,168.344z"/>
	<path d="M93.359,173l2.09-4.58c0.021-0.041,0.082-0.076,0.115-0.076h0.068c0.035,0,0.096,0.035,0.115,0.076l2.076,4.58
		c0.041,0.088-0.014,0.176-0.115,0.176h-0.43c-0.08,0-0.129-0.039-0.156-0.102l-0.422-0.932h-2.225
		c-0.137,0.312-0.279,0.619-0.416,0.932c-0.02,0.047-0.074,0.102-0.156,0.102h-0.428C93.373,173.176,93.32,173.088,93.359,173z
		 M96.443,171.557l-0.838-1.865h-0.033l-0.83,1.865H96.443z"/>
	<path d="M101.916,168.543c0-0.068,0.055-0.129,0.129-0.129h1.852c0.816,0,1.484,0.645,1.484,1.455c0,0.627-0.416,1.143-1.008,1.381
		l0.932,1.73c0.049,0.088,0,0.195-0.115,0.195h-0.531c-0.055,0-0.096-0.033-0.109-0.061l-0.904-1.803h-1.027v1.734
		c0,0.068-0.061,0.129-0.129,0.129h-0.443c-0.074,0-0.129-0.061-0.129-0.129V168.543z M103.842,170.727
		c0.443,0,0.83-0.375,0.83-0.844c0-0.441-0.387-0.809-0.83-0.809h-1.211v1.652H103.842z"/>
	<path d="M111.949,168.344c1.361,0,2.451,1.098,2.451,2.457c0,1.363-1.09,2.445-2.451,2.445s-2.443-1.082-2.443-2.445
		C109.506,169.441,110.588,168.344,111.949,168.344z M111.949,172.564c0.973,0,1.77-0.791,1.77-1.764
		c0-0.965-0.797-1.775-1.77-1.775c-0.967,0-1.762,0.811-1.762,1.775C110.188,171.773,110.982,172.564,111.949,172.564z"/>
	<path d="M118.785,168.543c0-0.068,0.055-0.129,0.129-0.129h0.449c0.068,0,0.129,0.061,0.129,0.129v4h1.846
		c0.074,0,0.129,0.062,0.129,0.129v0.375c0,0.068-0.055,0.129-0.129,0.129h-2.424c-0.074,0-0.129-0.061-0.129-0.129V168.543z"/>
	<path d="M125.592,168.543c0-0.068,0.061-0.129,0.129-0.129h0.449c0.068,0,0.129,0.061,0.129,0.129v4.504
		c0,0.068-0.061,0.129-0.129,0.129h-0.449c-0.068,0-0.129-0.061-0.129-0.129V168.543z"/>
	<path d="M131.027,168.469c0-0.07,0.061-0.125,0.129-0.125h0.17l2.955,3.418h0.006v-3.219c0-0.068,0.055-0.129,0.129-0.129h0.436
		c0.068,0,0.129,0.061,0.129,0.129v4.578c0,0.07-0.061,0.125-0.129,0.125h-0.176l-2.955-3.512h-0.006v3.312
		c0,0.068-0.055,0.129-0.129,0.129h-0.43c-0.068,0-0.129-0.061-0.129-0.129V168.469z"/>
	<path d="M139.072,173l2.09-4.58c0.021-0.041,0.082-0.076,0.115-0.076h0.068c0.035,0,0.096,0.035,0.115,0.076l2.076,4.58
		c0.041,0.088-0.014,0.176-0.115,0.176h-0.43c-0.08,0-0.129-0.039-0.156-0.102l-0.422-0.932h-2.225
		c-0.137,0.312-0.279,0.619-0.416,0.932c-0.02,0.047-0.074,0.102-0.156,0.102h-0.428C139.086,173.176,139.033,173.088,139.072,173z
		 M142.156,171.557l-0.838-1.865h-0.033l-0.83,1.865H142.156z"/>
</g>
<circle fill="none" stroke="#000000" stroke-width="0.7972" stroke-linecap="round" stroke-linejoin="round" stroke-miterlimit="10" cx="114.398" cy="114.398" r="114"/>
<line fill="none" stroke="#000000" stroke-width="0.5822" x1="42.309" y1="116.668" x2="18.566" y2="116.668"/>
<line fill="none" stroke="#000000" stroke-width="0.6056" x1="209.506" y1="116.668" x2="183.818" y2="116.668"/>
</svg>
