<?xml version="1.0" encoding="utf-8"?>
<!-- Generator: Adobe Illustrator 15.1.0, SVG Export Plug-In . SVG Version: 6.00 Build 0)  -->
<!DOCTYPE svg PUBLIC "-//W3C//DTD SVG 1.1//EN" "http://www.w3.org/Graphics/SVG/1.1/DTD/svg11.dtd">
<svg version="1.1" id="Layer_1" xmlns="http://www.w3.org/2000/svg" xmlns:xlink="http://www.w3.org/1999/xlink" x="0px" y="0px"
	 width="114.797px" height="114.797px" viewBox="0 0 114.797 114.797" enable-background="new 0 0 114.797 114.797"
	 xml:space="preserve">
<g>
	<path d="M58.154,57.082v2.593h2.593v0.996h-2.593v2.593h-0.996v-2.593h-2.593v-0.996h2.593v-2.593H58.154z"/>
</g>
<g>
	<path d="M44.109,70.877h-2.451V48.868h3.619c1.897,0,3.854,0.058,5.459,1.167c1.635,1.139,2.48,3.065,2.48,5.021
		c0,1.78-0.729,3.59-2.102,4.729c-1.488,1.226-3.386,1.459-5.225,1.459h-1.781V70.877z M44.109,58.967h1.635
		c2.715,0,5.021-0.817,5.021-3.97c0-3.59-2.891-3.853-5.751-3.853h-0.905V58.967z"/>
	<path d="M66.094,70.877h-2.451V48.868h3.619c1.897,0,3.854,0.058,5.459,1.167c1.635,1.139,2.48,3.065,2.48,5.021
		c0,1.78-0.729,3.59-2.102,4.729c-1.488,1.226-3.386,1.459-5.225,1.459h-1.781V70.877z M66.094,58.967h1.635
		c2.715,0,5.021-0.817,5.021-3.97c0-3.59-2.891-3.853-5.751-3.853h-0.905V58.967z"/>
</g>
<g>
	<path d="M15.268,68.4c0.049-0.011,0.103,0.023,0.114,0.072l0.104,0.452c0.011,0.048-0.023,0.103-0.071,0.114l-3.223,0.736
		c-0.049,0.012-0.103-0.022-0.113-0.07l-0.104-0.453c-0.011-0.049,0.023-0.103,0.071-0.113L15.268,68.4z"/>
	<path d="M16.416,72.47c0.048-0.017,0.101,0.012,0.117,0.059l0.043,0.117l-1.366,2.71l0.002,0.006l1.94-0.706
		c0.047-0.018,0.104,0.005,0.122,0.057l0.157,0.433c0.018,0.047-0.01,0.104-0.057,0.121l-3.163,1.15
		c-0.047,0.018-0.1-0.012-0.117-0.059l-0.041-0.113l1.443-2.748l-0.002-0.005l-2.021,0.735c-0.047,0.017-0.103-0.006-0.121-0.057
		l-0.155-0.428c-0.018-0.048,0.01-0.105,0.057-0.123L16.416,72.47z"/>
	<path d="M18.646,79.174L18.289,78.5c-0.026-0.049-0.005-0.105,0.039-0.129l0.361-0.191c0.044-0.023,0.103-0.009,0.128,0.039
		l1.021,1.928c0.025,0.049,0.005,0.104-0.039,0.128l-0.362,0.191c-0.044,0.023-0.102,0.009-0.128-0.039l-0.357-0.675l-2.474,1.31
		c-0.044,0.023-0.104,0.005-0.128-0.04l-0.217-0.41c-0.023-0.043-0.005-0.104,0.039-0.127L18.646,79.174z"/>
	<path d="M21.478,82.996c0.041-0.028,0.101-0.021,0.132,0.023l1.168,1.664c0.031,0.046,0.018,0.104-0.023,0.133l-0.335,0.235
		c-0.041,0.028-0.101,0.021-0.133-0.023l-0.849-1.21l-0.671,0.471l0.709,1.01c0.028,0.041,0.018,0.104-0.023,0.132l-0.34,0.238
		c-0.045,0.031-0.104,0.018-0.132-0.023l-0.709-1.01l-0.715,0.502l0.849,1.21c0.032,0.045,0.018,0.104-0.023,0.133l-0.335,0.234
		c-0.041,0.029-0.101,0.022-0.132-0.022l-1.168-1.665c-0.031-0.045-0.018-0.104,0.023-0.132L21.478,82.996z"/>
	<path d="M24.873,87.451c0.037-0.033,0.097-0.035,0.135,0.006l0.969,1.051c0.406,0.441,0.385,1.127-0.053,1.53
		c-0.338,0.312-0.82,0.342-1.244,0.14l-0.47,1.365c-0.024,0.069-0.106,0.098-0.164,0.035l-0.356-0.386
		c-0.03-0.033-0.028-0.069-0.021-0.089l0.523-1.388l-0.376-0.407l-0.938,0.863c-0.037,0.033-0.101,0.031-0.134-0.006l-0.312-0.338
		c-0.038-0.041-0.031-0.101,0.005-0.135L24.873,87.451z M24.766,89.549c0.18,0.194,0.505,0.208,0.711,0.018
		c0.194-0.179,0.2-0.497,0.021-0.691l-0.553-0.6l-0.731,0.674L24.766,89.549z"/>
	<path d="M29.106,91.682c0.032-0.037,0.096-0.042,0.134-0.01l0.352,0.303c0.038,0.032,0.043,0.096,0.011,0.133l-2.152,2.506
		c-0.032,0.037-0.096,0.043-0.133,0.01l-0.353-0.303c-0.037-0.031-0.042-0.096-0.01-0.133L29.106,91.682z"/>
	<path d="M33.78,95.055c0.833,0.553,1.056,1.664,0.503,2.498c-0.553,0.833-1.658,1.053-2.491,0.501s-1.057-1.653-0.504-2.487
		C31.841,94.733,32.947,94.502,33.78,95.055z M32.151,97.512c0.524,0.348,1.242,0.207,1.59-0.318
		c0.349-0.525,0.205-1.25-0.319-1.598c-0.525-0.348-1.244-0.195-1.593,0.33C31.481,96.451,31.626,97.164,32.151,97.512z"/>
	<path d="M38.141,97.776c0.021-0.045,0.076-0.069,0.126-0.046l1.292,0.607c0.542,0.254,0.781,0.896,0.528,1.434
		c-0.195,0.415-0.63,0.625-1.097,0.598l0.08,1.438c0.004,0.074-0.062,0.131-0.139,0.096l-0.474-0.223
		c-0.041-0.02-0.053-0.053-0.054-0.074l-0.038-1.479l-0.502-0.235l-0.541,1.151c-0.021,0.046-0.081,0.067-0.126,0.046l-0.415-0.195
		c-0.05-0.023-0.067-0.081-0.046-0.126L38.141,97.776z M38.832,99.755c0.239,0.112,0.545,0.003,0.664-0.251
		c0.112-0.239-0.003-0.535-0.242-0.648l-0.736-0.346l-0.422,0.899L38.832,99.755z"/>
	<path d="M47.287,101.153c0.01-0.049,0.059-0.085,0.107-0.075l1.157,0.242c0.942,0.198,1.553,1.126,1.356,2.063
		c-0.198,0.947-1.13,1.553-2.072,1.354l-1.157-0.242c-0.049-0.01-0.079-0.062-0.068-0.11L47.287,101.153z M47.902,104.131
		c0.635,0.133,1.198-0.248,1.332-0.889c0.134-0.635-0.23-1.21-0.865-1.343l-0.557-0.116l-0.467,2.231L47.902,104.131z"/>
	<path d="M53.554,102.184c0.003-0.05,0.046-0.092,0.102-0.088l2.03,0.143c0.055,0.004,0.092,0.052,0.088,0.102l-0.028,0.409
		c-0.004,0.05-0.047,0.093-0.102,0.089l-1.477-0.104l-0.058,0.818l1.232,0.087c0.05,0.004,0.092,0.051,0.088,0.102l-0.029,0.414
		c-0.004,0.055-0.052,0.092-0.102,0.088l-1.232-0.087l-0.062,0.874l1.478,0.104c0.055,0.004,0.092,0.051,0.088,0.102l-0.029,0.408
		c-0.003,0.051-0.046,0.093-0.101,0.089l-2.031-0.144c-0.055-0.004-0.092-0.051-0.088-0.102L53.554,102.184z"/>
	<path d="M59.125,105.266l0.162-0.318c0.036-0.072,0.121-0.077,0.168-0.045c0.026,0.014,0.446,0.286,0.771,0.269
		c0.26-0.015,0.444-0.194,0.433-0.409c-0.014-0.255-0.237-0.418-0.666-0.564c-0.479-0.164-0.965-0.438-0.998-1.025
		c-0.024-0.444,0.277-0.977,1.07-1.02c0.509-0.029,0.912,0.209,1.017,0.279c0.052,0.027,0.071,0.111,0.039,0.162l-0.174,0.295
		c-0.037,0.062-0.109,0.106-0.172,0.07c-0.041-0.023-0.435-0.252-0.709-0.236c-0.284,0.016-0.428,0.213-0.419,0.373
		c0.013,0.234,0.206,0.384,0.619,0.526c0.495,0.168,1.069,0.427,1.104,1.07c0.028,0.514-0.39,1.013-1.093,1.051
		c-0.629,0.034-1.015-0.239-1.119-0.329C59.11,105.372,59.084,105.349,59.125,105.266z"/>
	<path d="M64.494,101.824c-0.009-0.05,0.028-0.102,0.078-0.109l0.458-0.077c0.049-0.009,0.101,0.028,0.109,0.078l0.545,3.263
		c0.009,0.049-0.028,0.102-0.077,0.109l-0.459,0.076c-0.049,0.008-0.101-0.028-0.109-0.078L64.494,101.824z"/>
	<path d="M70.084,100.395c0.431-0.127,0.893-0.082,1.301,0.1c0.05,0.027,0.071,0.083,0.045,0.133l-0.205,0.399
		c-0.027,0.05-0.07,0.062-0.125,0.036c-0.26-0.12-0.542-0.141-0.806-0.062c-0.599,0.177-0.921,0.83-0.744,1.43
		c0.177,0.594,0.8,0.956,1.403,0.777c0.269-0.08,0.45-0.223,0.535-0.289l-0.121-0.406l-0.383,0.113
		c-0.053,0.016-0.103-0.012-0.117-0.06l-0.112-0.378c-0.016-0.053,0.012-0.104,0.064-0.119l0.92-0.271
		c0.048-0.015,0.099,0.018,0.113,0.064l0.363,1.227c0.011,0.039-0.001,0.068-0.016,0.088c0,0-0.401,0.458-1.096,0.664
		c-0.954,0.282-1.944-0.248-2.229-1.206S69.13,100.678,70.084,100.395z"/>
	<path d="M74.534,98.912c-0.021-0.045,0.003-0.101,0.049-0.121l0.113-0.053l2.815,1.127l0.005-0.002l-0.87-1.872
		c-0.021-0.046-0.004-0.103,0.046-0.126l0.417-0.193c0.046-0.021,0.105,0,0.127,0.045l1.417,3.051
		c0.021,0.045-0.003,0.101-0.049,0.121l-0.108,0.051l-2.861-1.199l-0.004,0.002l0.905,1.948c0.021,0.046,0.004,0.103-0.046,0.126
		l-0.413,0.191c-0.045,0.021-0.104,0-0.126-0.046L74.534,98.912z"/>
	<path d="M85.058,96.293l-0.047-0.355c-0.011-0.08,0.056-0.131,0.113-0.131c0.028-0.004,0.529-0.018,0.786-0.217
		c0.205-0.158,0.256-0.412,0.124-0.582c-0.155-0.201-0.433-0.208-0.868-0.086c-0.487,0.137-1.042,0.187-1.402-0.279
		c-0.271-0.353-0.324-0.961,0.304-1.446c0.403-0.312,0.87-0.344,0.995-0.345c0.058-0.008,0.121,0.051,0.124,0.111l0.024,0.342
		c0.005,0.071-0.03,0.148-0.103,0.154c-0.047,0.004-0.499,0.039-0.717,0.207c-0.226,0.174-0.231,0.418-0.134,0.545
		c0.143,0.186,0.387,0.199,0.808,0.082c0.503-0.142,1.122-0.254,1.516,0.256c0.314,0.406,0.253,1.054-0.305,1.484
		c-0.498,0.385-0.971,0.377-1.107,0.363C85.106,96.388,85.071,96.383,85.058,96.293z"/>
	<path d="M88.235,90.431l-0.544,0.537c-0.039,0.038-0.099,0.034-0.134-0.001l-0.288-0.291c-0.035-0.036-0.038-0.096,0.001-0.135
		l1.554-1.533c0.039-0.039,0.099-0.035,0.134,0l0.288,0.292c0.035,0.036,0.038,0.096-0.001,0.134l-0.544,0.537l1.969,1.994
		c0.035,0.036,0.035,0.1-0.001,0.135l-0.33,0.326c-0.036,0.035-0.1,0.035-0.135,0L88.235,90.431z"/>
	<path d="M91.055,86.658c-0.039-0.031-0.047-0.094-0.017-0.133l0.292-0.376c0.033-0.044,0.094-0.048,0.133-0.017l1.616,1.254
		c0.336,0.261,0.779,0.237,1.046-0.106c0.267-0.345,0.183-0.782-0.149-1.04l-1.62-1.258c-0.039-0.031-0.051-0.09-0.017-0.133
		l0.291-0.376c0.031-0.04,0.094-0.048,0.134-0.017l1.644,1.275c0.601,0.467,0.716,1.322,0.231,1.946
		c-0.481,0.62-1.339,0.722-1.939,0.255L91.055,86.658z"/>
	<path d="M94.735,81.504c-0.043-0.025-0.062-0.082-0.038-0.125l0.582-1.031c0.475-0.839,1.545-1.141,2.38-0.669
		c0.844,0.477,1.139,1.55,0.664,2.389l-0.582,1.03c-0.024,0.044-0.083,0.057-0.127,0.032L94.735,81.504z M97.764,81.82
		c0.319-0.565,0.127-1.219-0.443-1.541c-0.565-0.32-1.225-0.147-1.544,0.418l-0.28,0.496l1.987,1.123L97.764,81.82z"/>
	<path d="M97.604,75.838c-0.047-0.02-0.071-0.078-0.052-0.124l0.177-0.431c0.02-0.045,0.078-0.07,0.124-0.051l3.062,1.263
		c0.046,0.019,0.07,0.077,0.051,0.124l-0.177,0.43c-0.02,0.047-0.078,0.07-0.124,0.052L97.604,75.838z"/>
	<path d="M99.353,70.338c0.263-0.965,1.249-1.524,2.213-1.262c0.965,0.262,1.521,1.242,1.259,2.207
		c-0.263,0.964-1.238,1.521-2.202,1.26C99.657,72.28,99.09,71.303,99.353,70.338z M102.197,71.112
		c0.165-0.608-0.195-1.245-0.803-1.409c-0.607-0.166-1.25,0.197-1.415,0.805c-0.166,0.608,0.205,1.242,0.813,1.408
		C101.4,72.081,102.032,71.72,102.197,71.112z"/>
</g>
<g>
	<path d="M19.695,45.076l-0.188,0.501l-7.87-2.969l0.523-1.388c0.232-0.616,0.499-1.195,1.102-1.528
		c0.588-0.327,1.27-0.332,1.885-0.1c0.563,0.213,1.107,0.668,1.308,1.244c0.236,0.638,0.071,1.327-0.16,1.942l-0.335,0.887
		L19.695,45.076z M15.832,42.582c0.192-0.512,0.303-0.994,0.092-1.539c-0.184-0.462-0.527-0.783-0.987-0.957
		c-0.49-0.185-1.056-0.171-1.497,0.115c-0.452,0.283-0.652,0.779-0.833,1.26l-0.311,0.824l3.193,1.205L15.832,42.582z"/>
	<path d="M25.168,27.648c1.876,1.443,2.207,4.218,0.764,6.094c-1.442,1.876-4.209,2.27-6.086,0.827
		c-1.876-1.443-2.213-4.209-0.764-6.094C20.524,26.599,23.292,26.206,25.168,27.648z M20.173,34.144
		c1.646,1.266,4.081,0.956,5.36-0.708c1.273-1.655,0.945-4.104-0.692-5.363c-1.646-1.266-4.088-0.947-5.36,0.708
		C18.201,30.445,18.526,32.878,20.173,34.144z"/>
	<path d="M33.144,25.723l1.72-1.277l0.299,0.403l-2.149,1.597l-5.017-6.753l0.431-0.319L33.144,25.723z"/>
	<path d="M40.856,21.675l-0.484,0.228l-3.578-7.617l0.484-0.228L40.856,21.675z"/>
	<path d="M49.394,11.663c-0.498-0.509-1.104-0.778-1.878-0.611c-0.884,0.19-1.396,1.042-1.211,1.905
		c0.186,0.862,1.081,1.045,1.814,1.219l1.747,0.479c0.707,0.259,1.132,0.693,1.291,1.435c0.294,1.364-0.729,2.657-2.06,2.944
		c-1.146,0.247-2.193-0.27-2.803-1.246l0.413-0.306c0.537,0.798,1.312,1.27,2.306,1.056c1.08-0.232,1.846-1.288,1.61-2.379
		c-0.199-0.928-1.233-1.116-2.018-1.312l-1.653-0.466c-0.618-0.221-1.026-0.635-1.168-1.29c-0.263-1.222,0.424-2.271,1.657-2.537
		c0.829-0.179,1.711,0.1,2.256,0.724L49.394,11.663z"/>
	<path d="M63.521,13.482l0.264-3.56l0.534,0.039l-0.621,8.388l-0.534-0.04l0.321-4.327l-5.095-0.377l-0.321,4.327l-0.533-0.04
		l0.621-8.387l0.534,0.04l-0.264,3.56L63.521,13.482z"/>
	<path d="M73.77,15.199l1.556,0.618l-0.745,1.878l1.878,0.746l-0.618,1.557l-1.878-0.746l-0.75,1.889l-1.556-0.618l0.749-1.888
		l-1.878-0.746l0.618-1.557l1.878,0.746L73.77,15.199z"/>
	<path d="M81.034,25.532l-0.425-0.326l5.12-6.673l1.177,0.903c0.522,0.4,0.999,0.823,1.144,1.496c0.143,0.657-0.05,1.312-0.45,1.833
		c-0.367,0.478-0.96,0.866-1.569,0.891c-0.679,0.042-1.291-0.315-1.812-0.716l-0.753-0.577L81.034,25.532z M84.541,22.556
		c0.434,0.333,0.863,0.579,1.446,0.534c0.496-0.042,0.902-0.278,1.201-0.667c0.319-0.416,0.47-0.961,0.323-1.467
		c-0.139-0.515-0.557-0.849-0.964-1.162l-0.699-0.537l-2.078,2.708L84.541,22.556z"/>
	<path d="M96.147,35.803c-1.922,1.381-4.674,0.899-6.056-1.022c-1.381-1.922-0.961-4.684,0.96-6.065
		c1.922-1.381,4.668-0.908,6.056,1.022C98.488,31.659,98.068,34.422,96.147,35.803z M91.364,29.15
		c-1.686,1.212-2.09,3.633-0.864,5.337c1.218,1.695,3.657,2.086,5.334,0.881c1.687-1.212,2.084-3.643,0.865-5.337
		C95.475,28.327,93.051,27.938,91.364,29.15z"/>
	<path d="M95.199,44.068l-0.173-0.508L103,40.856l0.477,1.406c0.212,0.624,0.374,1.241,0.119,1.881
		c-0.247,0.626-0.771,1.063-1.395,1.275c-0.571,0.194-1.281,0.187-1.802-0.132c-0.588-0.343-0.898-0.98-1.11-1.604l-0.305-0.898
		L95.199,44.068z M99.772,43.542c0.176,0.518,0.396,0.962,0.907,1.249c0.436,0.241,0.905,0.271,1.37,0.113
		c0.497-0.168,0.926-0.538,1.086-1.04c0.17-0.506,0.009-1.017-0.156-1.503l-0.283-0.835l-3.236,1.097L99.772,43.542z"/>
</g>
<g>
	<path d="M40.761,36.858c0.344,0,0.592,0.116,0.823,0.316c0.031,0.027,0.031,0.068,0.004,0.095l-0.149,0.153
		c-0.024,0.031-0.055,0.031-0.086,0c-0.159-0.14-0.377-0.228-0.588-0.228c-0.487,0-0.854,0.408-0.854,0.885s0.371,0.881,0.857,0.881
		c0.248,0,0.422-0.099,0.585-0.225c0.031-0.024,0.062-0.021,0.082-0.003l0.156,0.153c0.027,0.023,0.021,0.068-0.003,0.092
		c-0.231,0.225-0.524,0.33-0.827,0.33c-0.681,0-1.229-0.541-1.229-1.222S40.08,36.858,40.761,36.858z"/>
	<path d="M43.78,36.957c0-0.034,0.03-0.064,0.064-0.064h0.225c0.037,0,0.064,0.031,0.064,0.064v0.95h1.246v-0.95
		c0-0.034,0.027-0.064,0.064-0.064h0.225c0.034,0,0.064,0.031,0.064,0.064v2.253c0,0.034-0.03,0.064-0.064,0.064h-0.225
		c-0.037,0-0.064-0.031-0.064-0.064v-0.983h-1.246v0.983c0,0.034-0.027,0.064-0.064,0.064h-0.225c-0.034,0-0.064-0.031-0.064-0.064
		V36.957z"/>
	<path d="M47.779,39.186l1.045-2.29c0.011-0.021,0.041-0.038,0.058-0.038h0.034c0.018,0,0.048,0.017,0.058,0.038l1.038,2.29
		c0.021,0.044-0.007,0.088-0.058,0.088h-0.215c-0.04,0-0.064-0.021-0.078-0.051l-0.211-0.466h-1.112
		c-0.068,0.156-0.14,0.31-0.208,0.466c-0.01,0.024-0.037,0.051-0.078,0.051h-0.214C47.786,39.274,47.76,39.23,47.779,39.186z
		 M49.321,38.464l-0.419-0.932h-0.017l-0.415,0.932H49.321z"/>
	<path d="M52.058,36.957c0-0.034,0.027-0.064,0.064-0.064h0.926c0.408,0,0.742,0.323,0.742,0.728c0,0.313-0.208,0.572-0.504,0.691
		l0.466,0.864c0.024,0.044,0,0.099-0.058,0.099h-0.266c-0.027,0-0.048-0.017-0.055-0.031l-0.452-0.901h-0.514v0.868
		c0,0.034-0.03,0.064-0.064,0.064h-0.222c-0.037,0-0.064-0.031-0.064-0.064V36.957z M53.021,38.049c0.222,0,0.415-0.187,0.415-0.422
		c0-0.221-0.193-0.405-0.415-0.405h-0.605v0.827H53.021z"/>
	<path d="M56.026,36.957c0-0.034,0.027-0.064,0.064-0.064h0.225c0.034,0,0.064,0.031,0.064,0.064v2.001h0.923
		c0.037,0,0.064,0.031,0.064,0.064v0.188c0,0.034-0.027,0.064-0.064,0.064h-1.212c-0.037,0-0.064-0.031-0.064-0.064V36.957z"/>
	<path d="M59.43,36.957c0-0.034,0.027-0.064,0.064-0.064h1.361c0.037,0,0.064,0.031,0.064,0.064v0.191
		c0,0.034-0.027,0.064-0.064,0.064H59.78v0.694h0.908c0.034,0,0.064,0.03,0.064,0.064v0.19c0,0.038-0.03,0.065-0.064,0.065H59.78
		v0.731h1.075c0.037,0,0.064,0.031,0.064,0.064v0.188c0,0.034-0.027,0.064-0.064,0.064h-1.361c-0.037,0-0.064-0.031-0.064-0.064
		V36.957z"/>
	<path d="M62.985,38.931c0.031-0.044,0.058-0.095,0.089-0.14c0.03-0.044,0.078-0.058,0.115-0.027
		c0.021,0.017,0.282,0.235,0.545,0.235c0.234,0,0.384-0.143,0.384-0.317c0-0.204-0.177-0.333-0.514-0.473
		c-0.347-0.146-0.619-0.327-0.619-0.722c0-0.265,0.204-0.629,0.745-0.629c0.341,0,0.596,0.177,0.63,0.201
		c0.027,0.017,0.055,0.065,0.021,0.116c-0.027,0.041-0.058,0.088-0.085,0.129c-0.027,0.044-0.071,0.065-0.119,0.034
		c-0.024-0.014-0.263-0.17-0.46-0.17c-0.285,0-0.384,0.181-0.384,0.307c0,0.194,0.149,0.313,0.432,0.429
		c0.395,0.16,0.731,0.347,0.731,0.762c0,0.354-0.316,0.643-0.759,0.643c-0.415,0-0.677-0.218-0.731-0.269
		C62.976,39.012,62.951,38.989,62.985,38.931z"/>
	<path d="M66.997,37.212h-0.554c-0.038,0-0.065-0.031-0.065-0.064v-0.191c0-0.034,0.027-0.064,0.065-0.064h1.463
		c0.037,0,0.064,0.031,0.064,0.064v0.191c0,0.034-0.027,0.064-0.064,0.064h-0.555v1.998c0,0.034-0.031,0.064-0.064,0.064h-0.225
		c-0.034,0-0.065-0.031-0.065-0.064V37.212z"/>
	<path d="M71.058,36.858c0.681,0,1.226,0.548,1.226,1.229s-0.545,1.222-1.226,1.222s-1.222-0.541-1.222-1.222
		S70.377,36.858,71.058,36.858z M71.058,38.968c0.486,0,0.885-0.395,0.885-0.881c0-0.483-0.398-0.888-0.885-0.888
		c-0.483,0-0.881,0.405-0.881,0.888C70.177,38.573,70.574,38.968,71.058,38.968z"/>
	<path d="M74.476,36.92c0-0.034,0.03-0.062,0.064-0.062h0.085l1.478,1.708h0.003v-1.609c0-0.034,0.027-0.064,0.064-0.064h0.218
		c0.034,0,0.064,0.031,0.064,0.064v2.29c0,0.034-0.03,0.062-0.064,0.062H76.3l-1.478-1.756h-0.003v1.657
		c0,0.034-0.027,0.064-0.064,0.064H74.54c-0.034,0-0.064-0.031-0.064-0.064V36.92z"/>
</g>
<g>
	<path d="M48.774,80.994c0.031-0.045,0.058-0.096,0.089-0.141c0.03-0.043,0.078-0.057,0.115-0.026
		c0.021,0.017,0.282,0.235,0.545,0.235c0.234,0,0.384-0.144,0.384-0.317c0-0.204-0.177-0.333-0.514-0.473
		c-0.347-0.146-0.619-0.327-0.619-0.722c0-0.266,0.204-0.629,0.745-0.629c0.341,0,0.596,0.177,0.63,0.2
		c0.027,0.017,0.055,0.065,0.021,0.116c-0.027,0.041-0.058,0.088-0.085,0.129c-0.027,0.045-0.071,0.064-0.119,0.034
		c-0.024-0.014-0.263-0.171-0.46-0.171c-0.285,0-0.384,0.182-0.384,0.307c0,0.194,0.149,0.313,0.432,0.43
		c0.395,0.159,0.731,0.346,0.731,0.762c0,0.354-0.316,0.643-0.759,0.643c-0.415,0-0.677-0.217-0.731-0.269
		C48.765,81.075,48.74,81.052,48.774,80.994z"/>
	<path d="M53.508,78.922c0.681,0,1.226,0.547,1.226,1.229c0,0.68-0.545,1.221-1.226,1.221s-1.222-0.541-1.222-1.221
		C52.286,79.469,52.827,78.922,53.508,78.922z M53.508,81.031c0.486,0,0.885-0.395,0.885-0.881c0-0.484-0.398-0.889-0.885-0.889
		c-0.483,0-0.881,0.404-0.881,0.889C52.627,80.637,53.024,81.031,53.508,81.031z"/>
	<path d="M56.896,79.02c0-0.033,0.03-0.064,0.064-0.064h0.228c0.038,0,0.064,0.031,0.064,0.064v1.406
		c0,0.34,0.218,0.605,0.565,0.605c0.351,0,0.571-0.262,0.571-0.6V79.02c0-0.033,0.027-0.064,0.064-0.064h0.229
		c0.034,0,0.064,0.031,0.064,0.064v1.43c0,0.518-0.392,0.922-0.929,0.922c-0.534,0-0.922-0.404-0.922-0.922V79.02z"/>
	<path d="M61.407,79.275h-0.554c-0.038,0-0.065-0.031-0.065-0.064V79.02c0-0.033,0.027-0.064,0.065-0.064h1.463
		c0.037,0,0.064,0.031,0.064,0.064v0.191c0,0.033-0.027,0.064-0.064,0.064h-0.555v1.998c0,0.033-0.031,0.064-0.064,0.064h-0.225
		c-0.034,0-0.065-0.031-0.065-0.064V79.275z"/>
	<path d="M64.453,79.02c0-0.033,0.03-0.064,0.064-0.064h0.225c0.037,0,0.064,0.031,0.064,0.064v0.95h1.246v-0.95
		c0-0.033,0.027-0.064,0.064-0.064h0.225c0.034,0,0.064,0.031,0.064,0.064v2.254c0,0.033-0.03,0.064-0.064,0.064h-0.225
		c-0.037,0-0.064-0.031-0.064-0.064v-0.984h-1.246v0.984c0,0.033-0.027,0.064-0.064,0.064h-0.225c-0.034,0-0.064-0.031-0.064-0.064
		V79.02z"/>
	<path d="M44.18,84.371c0.344,0,0.592,0.116,0.823,0.316c0.031,0.027,0.031,0.068,0.004,0.096l-0.149,0.153
		c-0.024,0.03-0.055,0.03-0.086,0c-0.159-0.14-0.377-0.228-0.588-0.228c-0.487,0-0.854,0.408-0.854,0.885s0.371,0.881,0.857,0.881
		c0.248,0,0.422-0.099,0.585-0.225c0.031-0.023,0.062-0.021,0.082-0.004L45.01,86.4c0.027,0.023,0.021,0.067-0.003,0.092
		c-0.231,0.225-0.524,0.33-0.827,0.33c-0.681,0-1.229-0.541-1.229-1.223C42.951,84.92,43.499,84.371,44.18,84.371z"/>
	<path d="M46.879,86.699l1.045-2.29c0.011-0.021,0.041-0.038,0.058-0.038h0.034c0.018,0,0.048,0.018,0.058,0.038l1.038,2.29
		c0.021,0.044-0.007,0.088-0.058,0.088h-0.215c-0.04,0-0.064-0.02-0.078-0.051l-0.211-0.466h-1.112
		c-0.068,0.156-0.14,0.31-0.208,0.466c-0.01,0.023-0.037,0.051-0.078,0.051h-0.214C46.886,86.787,46.859,86.743,46.879,86.699z
		 M48.421,85.978l-0.419-0.933h-0.017l-0.415,0.933H48.421z"/>
	<path d="M51.157,84.471c0-0.034,0.027-0.064,0.064-0.064h0.926c0.408,0,0.742,0.322,0.742,0.728c0,0.313-0.208,0.571-0.504,0.69
		l0.466,0.865c0.024,0.044,0,0.098-0.058,0.098h-0.266c-0.027,0-0.048-0.017-0.055-0.03l-0.452-0.901h-0.514v0.867
		c0,0.034-0.03,0.064-0.064,0.064h-0.222c-0.037,0-0.064-0.03-0.064-0.064V84.471z M52.12,85.562c0.222,0,0.415-0.188,0.415-0.422
		c0-0.221-0.193-0.404-0.415-0.404h-0.605v0.826H52.12z"/>
	<path d="M56.174,84.371c0.681,0,1.226,0.549,1.226,1.229c0,0.682-0.545,1.223-1.226,1.223s-1.222-0.541-1.222-1.223
		C54.952,84.92,55.493,84.371,56.174,84.371z M56.174,86.481c0.486,0,0.885-0.396,0.885-0.882c0-0.482-0.398-0.888-0.885-0.888
		c-0.483,0-0.881,0.405-0.881,0.888C55.293,86.086,55.69,86.481,56.174,86.481z"/>
	<path d="M59.592,84.471c0-0.034,0.027-0.064,0.064-0.064h0.225c0.034,0,0.064,0.03,0.064,0.064v2h0.923
		c0.037,0,0.064,0.031,0.064,0.064v0.188c0,0.034-0.027,0.064-0.064,0.064h-1.212c-0.037,0-0.064-0.03-0.064-0.064V84.471z"/>
	<path d="M62.995,84.471c0-0.034,0.03-0.064,0.064-0.064h0.225c0.034,0,0.064,0.03,0.064,0.064v2.252
		c0,0.034-0.03,0.064-0.064,0.064H63.06c-0.034,0-0.064-0.03-0.064-0.064V84.471z"/>
	<path d="M65.713,84.434c0-0.035,0.03-0.062,0.064-0.062h0.085l1.478,1.709h0.003v-1.609c0-0.034,0.027-0.064,0.064-0.064h0.218
		c0.034,0,0.064,0.03,0.064,0.064v2.289c0,0.035-0.03,0.062-0.064,0.062h-0.088l-1.478-1.756h-0.003v1.656
		c0,0.034-0.027,0.064-0.064,0.064h-0.215c-0.034,0-0.064-0.03-0.064-0.064V84.434z"/>
	<path d="M69.735,86.699l1.045-2.29c0.011-0.021,0.041-0.038,0.058-0.038h0.034c0.018,0,0.048,0.018,0.058,0.038l1.038,2.29
		c0.021,0.044-0.007,0.088-0.058,0.088h-0.215c-0.04,0-0.064-0.02-0.078-0.051l-0.211-0.466h-1.112
		c-0.068,0.156-0.14,0.31-0.208,0.466c-0.01,0.023-0.037,0.051-0.078,0.051h-0.214C69.742,86.787,69.716,86.743,69.735,86.699z
		 M71.277,85.978l-0.419-0.933h-0.017l-0.415,0.933H71.277z"/>
</g>
<circle fill="none" stroke="#000000" stroke-width="0.7972" stroke-linecap="round" stroke-linejoin="round" stroke-miterlimit="10" cx="57.398" cy="57.398" r="57"/>
<line fill="none" stroke="#000000" stroke-width="0.5822" x1="21.354" y1="58.533" x2="9.482" y2="58.533"/>
<line fill="none" stroke="#000000" stroke-width="0.6056" x1="104.952" y1="58.533" x2="92.108" y2="58.533"/>
</svg>
