<?xml version="1.0" encoding="utf-8"?>
<!-- Generator: Adobe Illustrator 15.1.0, SVG Export Plug-In . SVG Version: 6.00 Build 0)  -->
<!DOCTYPE svg PUBLIC "-//W3C//DTD SVG 1.1//EN" "http://www.w3.org/Graphics/SVG/1.1/DTD/svg11.dtd">
<svg version="1.1" id="Layer_1" xmlns="http://www.w3.org/2000/svg" xmlns:xlink="http://www.w3.org/1999/xlink" x="0px" y="0px"
	 width="270.528px" height="148.568px" viewBox="0 0 270.528 148.568" enable-background="new 0 0 270.528 148.568"
	 xml:space="preserve">
<g>
	<path d="M2.019,118.358H0V86.65h5.593c2.481,0,4.878,0.168,6.854,1.851c1.935,1.64,2.86,4.037,2.86,6.518
		c0,2.271-0.883,4.795-2.649,6.266c-1.935,1.683-4.584,2.02-7.065,2.02H2.019V118.358z M5.677,101.411
		c2.061,0,3.911-0.252,5.551-1.725c1.388-1.262,2.061-2.901,2.061-4.752c0-1.977-0.799-3.953-2.397-5.131
		c-1.598-1.219-3.616-1.262-5.551-1.262H2.019v12.869H5.677z"/>
	<path d="M55.047,102.504c0,8.914-7.527,16.273-16.443,16.273c-8.915,0-16.442-7.359-16.442-16.273
		c0-8.916,7.485-16.275,16.442-16.275C47.52,86.229,55.047,93.588,55.047,102.504z M24.181,102.504
		c0,7.821,6.518,14.382,14.424,14.382c7.864,0,14.424-6.603,14.424-14.382c0-7.822-6.56-14.383-14.424-14.383
		C30.699,88.122,24.181,94.682,24.181,102.504z"/>
	<path d="M65.981,116.465h8.074v1.893H63.963V86.65h2.019V116.465z"/>
	<path d="M84.148,118.358H82.13V86.65h2.019V118.358z"/>
	<path d="M109.843,91.864c-1.43-2.271-3.448-3.742-6.434-3.742c-3.407,0-5.972,2.733-5.972,6.056s3.154,4.71,5.719,5.93l6.056,3.153
		c2.396,1.515,3.616,3.449,3.616,6.309c0,5.257-4.794,9.209-9.924,9.209c-4.416,0-7.864-2.732-9.336-6.812l1.767-0.799
		c1.346,3.365,3.827,5.72,7.653,5.72c4.164,0,7.822-3.28,7.822-7.485c0-3.574-3.658-5.089-6.392-6.435l-5.719-3.028
		c-2.103-1.303-3.28-3.153-3.28-5.677c0-4.71,3.364-8.032,8.116-8.032c3.196,0,6.224,1.725,7.738,4.458L109.843,91.864z"/>
	<path d="M143.528,100.107V86.65h2.019v31.708h-2.019v-16.359h-19.261v16.359h-2.019V86.65h2.019v13.457H143.528z"/>
	<path d="M193.066,118.358h-2.019V86.65h5.593c2.481,0,4.879,0.168,6.855,1.851c1.934,1.64,2.859,4.037,2.859,6.518
		c0,2.271-0.884,4.795-2.649,6.266c-1.935,1.683-4.584,2.02-7.065,2.02h-3.574V118.358z M196.726,101.411
		c2.061,0,3.91-0.252,5.551-1.725c1.388-1.262,2.061-2.901,2.061-4.752c0-1.977-0.799-3.953-2.397-5.131
		c-1.598-1.219-3.616-1.262-5.551-1.262h-3.322v12.869H196.726z"/>
	<path d="M246.096,102.504c0,8.914-7.527,16.273-16.442,16.273c-8.916,0-16.443-7.359-16.443-16.273
		c0-8.916,7.485-16.275,16.443-16.275C238.568,86.229,246.096,93.588,246.096,102.504z M215.229,102.504
		c0,7.821,6.519,14.382,14.425,14.382c7.863,0,14.424-6.603,14.424-14.382c0-7.822-6.561-14.383-14.424-14.383
		C221.747,88.122,215.229,94.682,215.229,102.504z"/>
	<path d="M257.239,118.358h-2.019V86.65h5.593c2.481,0,4.879,0.168,6.855,1.851c1.934,1.64,2.859,4.037,2.859,6.518
		c0,2.271-0.883,4.795-2.649,6.266c-1.935,1.683-4.584,2.02-7.065,2.02h-3.574V118.358z M260.897,101.411
		c2.062,0,3.911-0.252,5.552-1.725c1.388-1.262,2.061-2.901,2.061-4.752c0-1.977-0.799-3.953-2.397-5.131
		c-1.598-1.219-3.616-1.262-5.551-1.262h-3.322v12.869H260.897z"/>
</g>
<g>
	<path d="M169.047,97.025h1.212v5.855h5.855v1.211h-5.855v5.855h-1.212v-5.855h-5.854v-1.211h5.854V97.025z"/>
</g>
<g>
	<path d="M32.44,135.574c0-0.372,0.29-0.662,0.648-0.662c0.373,0,0.662,0.29,0.662,0.662c0,0.358-0.29,0.648-0.662,0.648
		C32.73,136.222,32.44,135.932,32.44,135.574z M32.634,139.036c0-0.138,0.124-0.262,0.262-0.262h0.428
		c0.138,0,0.262,0.124,0.262,0.262v4.994c0,0.138-0.124,0.262-0.262,0.262h-0.428c-0.138,0-0.262-0.124-0.262-0.262V139.036z"/>
	<path d="M39.958,139.036c0-0.138,0.124-0.262,0.262-0.262h0.262c0.124,0,0.193,0.055,0.221,0.166l0.124,0.428
		c0,0,0.787-0.731,1.932-0.731c1.6,0,2.138,1.048,2.138,2.482v2.911c0,0.138-0.124,0.262-0.262,0.262h-0.441
		c-0.138,0-0.262-0.124-0.262-0.262v-2.911c0-1.048-0.469-1.559-1.242-1.559c-1.034,0-1.779,0.786-1.779,0.786v3.684
		c0,0.138-0.124,0.262-0.262,0.262H40.22c-0.138,0-0.262-0.124-0.262-0.262V139.036z"/>
	<path d="M51.556,139.602h-0.703c-0.152,0-0.262-0.125-0.262-0.263v-0.304c0-0.151,0.11-0.262,0.262-0.262h0.703v-1.531
		c0-0.138,0.124-0.262,0.262-0.262l0.441-0.027c0.138,0,0.249,0.123,0.249,0.262v1.559h1.6c0.152,0,0.262,0.11,0.262,0.262v0.304
		c0,0.138-0.11,0.263-0.262,0.263h-1.6v3.228c0,0.552,0.138,0.662,0.455,0.662c0.345,0,0.828-0.207,1.007-0.304
		c0.207-0.11,0.262-0.027,0.331,0.083l0.207,0.345c0.097,0.166,0.055,0.248-0.097,0.345c-0.193,0.124-0.938,0.469-1.586,0.469
		c-1.104,0-1.269-0.662-1.269-1.517V139.602z"/>
	<path d="M62.631,138.636c1.449,0,2.497,1.075,2.497,2.524c0,0.096-0.014,0.275-0.028,0.372c-0.014,0.138-0.124,0.234-0.248,0.234
		h-3.973c0.055,0.925,0.869,1.794,1.848,1.794c0.58,0,1.048-0.221,1.366-0.414c0.193-0.111,0.276-0.18,0.386-0.027
		c0.083,0.109,0.152,0.206,0.234,0.316c0.097,0.125,0.152,0.207-0.055,0.359c-0.331,0.262-1.076,0.634-2.028,0.634
		c-1.669,0-2.703-1.31-2.703-2.896C59.928,139.974,60.962,138.636,62.631,138.636z M64.176,140.995
		c-0.041-0.8-0.703-1.518-1.545-1.518c-0.924,0-1.641,0.662-1.738,1.518H64.176z"/>
	<path d="M71.043,139.036c0-0.138,0.124-0.262,0.262-0.262h0.262c0.11,0,0.207,0.068,0.234,0.193l0.11,0.4
		c0,0,0.511-0.731,1.655-0.731c0.414,0,1.104,0.069,0.966,0.455l-0.166,0.469c-0.069,0.18-0.193,0.18-0.331,0.124
		c-0.124-0.055-0.331-0.11-0.538-0.11c-1.048,0-1.503,0.772-1.503,0.772v3.684c0,0.138-0.124,0.262-0.262,0.262h-0.427
		c-0.138,0-0.262-0.124-0.262-0.262V139.036z"/>
	<path d="M79.87,135.574c0-0.372,0.29-0.662,0.648-0.662c0.373,0,0.662,0.29,0.662,0.662c0,0.358-0.29,0.648-0.662,0.648
		C80.16,136.222,79.87,135.932,79.87,135.574z M80.063,139.036c0-0.138,0.124-0.262,0.262-0.262h0.428
		c0.138,0,0.262,0.124,0.262,0.262v4.994c0,0.138-0.124,0.262-0.262,0.262h-0.428c-0.138,0-0.262-0.124-0.262-0.262V139.036z"/>
	<path d="M89.731,138.636c1.531,0,2.745,1.324,2.745,2.883c0,1.586-1.214,2.91-2.745,2.91s-2.745-1.324-2.745-2.91
		C86.986,139.96,88.2,138.636,89.731,138.636z M89.731,143.533c1.007,0,1.793-0.896,1.793-2.014c0-1.09-0.787-1.973-1.793-1.973
		s-1.793,0.883-1.793,1.973C87.938,142.636,88.725,143.533,89.731,143.533z"/>
	<path d="M98.448,139.036c0-0.138,0.124-0.262,0.262-0.262h0.262c0.11,0,0.207,0.068,0.234,0.193l0.11,0.4
		c0,0,0.511-0.731,1.655-0.731c0.414,0,1.104,0.069,0.966,0.455l-0.166,0.469c-0.069,0.18-0.193,0.18-0.331,0.124
		c-0.124-0.055-0.331-0.11-0.538-0.11c-1.048,0-1.503,0.772-1.503,0.772v3.684c0,0.138-0.124,0.262-0.262,0.262H98.71
		c-0.138,0-0.262-0.124-0.262-0.262V139.036z"/>
	<path d="M117.19,138.636c0.91,0,1.477,0.358,1.477,0.358v-4.097c0-0.138,0.124-0.263,0.262-0.263h0.428
		c0.138,0,0.262,0.125,0.262,0.263v9.132c0,0.138-0.124,0.262-0.262,0.262h-0.29c-0.124,0-0.207-0.097-0.234-0.221l-0.083-0.373
		c0,0-0.662,0.731-1.696,0.731c-1.407,0-2.511-1.324-2.511-2.91C114.542,139.905,115.535,138.636,117.19,138.636z M117.149,143.561
		c0.993,0,1.504-0.911,1.504-0.911v-2.759c0,0-0.58-0.331-1.339-0.331c-1.2,0-1.807,0.869-1.807,1.973
		C115.508,142.609,116.143,143.561,117.149,143.561z"/>
	<path d="M128.307,138.636c1.448,0,2.496,1.075,2.496,2.524c0,0.096-0.014,0.275-0.027,0.372c-0.014,0.138-0.124,0.234-0.248,0.234
		h-3.973c0.055,0.925,0.869,1.794,1.849,1.794c0.579,0,1.048-0.221,1.365-0.414c0.193-0.111,0.275-0.18,0.387-0.027
		c0.082,0.109,0.151,0.206,0.234,0.316c0.096,0.125,0.151,0.207-0.056,0.359c-0.331,0.262-1.076,0.634-2.027,0.634
		c-1.669,0-2.704-1.31-2.704-2.896C125.603,139.974,126.638,138.636,128.307,138.636z M129.852,140.995
		c-0.042-0.8-0.704-1.518-1.545-1.518c-0.925,0-1.642,0.662-1.738,1.518H129.852z"/>
	<path d="M136.389,143.519c0.055-0.083,0.151-0.276,0.193-0.345c0.068-0.11,0.221-0.139,0.372-0.041c0,0,0.593,0.482,1.297,0.482
		c0.565,0,0.896-0.29,0.896-0.662c0-0.482-0.414-0.703-1.214-1.104c-0.731-0.359-1.572-0.842-1.572-1.779
		c0-0.58,0.469-1.435,1.751-1.435c0.718,0,1.27,0.248,1.531,0.427c0.125,0.084,0.166,0.276,0.083,0.428l-0.11,0.221
		c-0.083,0.152-0.275,0.193-0.4,0.125c0,0-0.593-0.332-1.104-0.332c-0.62,0-0.786,0.318-0.786,0.553
		c0,0.455,0.456,0.662,1.021,0.938c0.951,0.455,1.807,0.883,1.807,1.876c0,0.8-0.772,1.559-1.903,1.559
		c-0.925,0-1.49-0.386-1.793-0.62C136.389,143.753,136.347,143.616,136.389,143.519z"/>
	<path d="M145.849,135.574c0-0.372,0.29-0.662,0.648-0.662c0.372,0,0.662,0.29,0.662,0.662c0,0.358-0.29,0.648-0.662,0.648
		C146.139,136.222,145.849,135.932,145.849,135.574z M146.042,139.036c0-0.138,0.124-0.262,0.262-0.262h0.428
		c0.138,0,0.262,0.124,0.262,0.262v4.994c0,0.138-0.124,0.262-0.262,0.262h-0.428c-0.138,0-0.262-0.124-0.262-0.262V139.036z"/>
	<path d="M153.738,142.443c0,0-0.441-0.565-0.441-1.379c0-1.283,0.896-2.428,2.331-2.428h2.332c0.151,0,0.262,0.11,0.262,0.262
		v0.234c0,0.097-0.056,0.221-0.152,0.235l-0.744,0.151c0,0,0.62,0.455,0.62,1.545c0,1.255-0.896,2.345-2.317,2.345
		c-0.883,0-1.311-0.345-1.311-0.345s-0.606,0.276-0.606,0.827c0,0.346,0.248,0.676,0.759,0.676h1.986
		c1.158,0,2.069,0.566,2.069,1.766c0,1.146-1.187,2.235-2.855,2.235c-1.849,0-2.648-0.993-2.648-1.903
		c0-0.828,0.662-1.201,0.8-1.283v-0.041c-0.358-0.098-1.007-0.455-1.007-1.311C152.814,142.981,153.738,142.443,153.738,142.443z
		 M155.656,147.67c0.91,0,1.848-0.51,1.848-1.31c0-0.18-0.082-0.897-1.048-0.897c-0.511,0-1.021,0-1.531,0
		c0,0-0.924,0.249-0.924,1.062C154.001,147.188,154.718,147.67,155.656,147.67z M157.021,141.036c0-0.91-0.552-1.545-1.38-1.545
		c-0.841,0-1.448,0.635-1.448,1.545c0,0.911,0.607,1.545,1.448,1.545C156.47,142.581,157.021,141.947,157.021,141.036z"/>
	<path d="M164.11,139.036c0-0.138,0.124-0.262,0.262-0.262h0.263c0.124,0,0.192,0.055,0.221,0.166l0.124,0.428
		c0,0,0.786-0.731,1.931-0.731c1.601,0,2.139,1.048,2.139,2.482v2.911c0,0.138-0.124,0.262-0.263,0.262h-0.441
		c-0.138,0-0.262-0.124-0.262-0.262v-2.911c0-1.048-0.469-1.559-1.241-1.559c-1.035,0-1.78,0.786-1.78,0.786v3.684
		c0,0.138-0.124,0.262-0.262,0.262h-0.428c-0.138,0-0.262-0.124-0.262-0.262V139.036z"/>
	<path d="M182.494,143.519c0.055-0.083,0.151-0.276,0.193-0.345c0.068-0.11,0.221-0.139,0.372-0.041c0,0,0.593,0.482,1.297,0.482
		c0.565,0,0.896-0.29,0.896-0.662c0-0.482-0.414-0.703-1.214-1.104c-0.731-0.359-1.572-0.842-1.572-1.779
		c0-0.58,0.469-1.435,1.751-1.435c0.718,0,1.27,0.248,1.531,0.427c0.125,0.084,0.166,0.276,0.083,0.428l-0.11,0.221
		c-0.083,0.152-0.275,0.193-0.4,0.125c0,0-0.593-0.332-1.104-0.332c-0.62,0-0.786,0.318-0.786,0.553
		c0,0.455,0.456,0.662,1.021,0.938c0.951,0.455,1.807,0.883,1.807,1.876c0,0.8-0.772,1.559-1.903,1.559
		c-0.925,0-1.49-0.386-1.793-0.62C182.494,143.753,182.452,143.616,182.494,143.519z"/>
	<path d="M192.507,139.602h-0.703c-0.152,0-0.263-0.125-0.263-0.263v-0.304c0-0.151,0.11-0.262,0.263-0.262h0.703v-1.531
		c0-0.138,0.124-0.262,0.262-0.262l0.441-0.027c0.139,0,0.249,0.123,0.249,0.262v1.559h1.6c0.152,0,0.263,0.11,0.263,0.262v0.304
		c0,0.138-0.11,0.263-0.263,0.263h-1.6v3.228c0,0.552,0.138,0.662,0.455,0.662c0.345,0,0.827-0.207,1.007-0.304
		c0.207-0.11,0.262-0.027,0.331,0.083l0.207,0.345c0.097,0.166,0.055,0.248-0.097,0.345c-0.193,0.124-0.938,0.469-1.586,0.469
		c-1.104,0-1.27-0.662-1.27-1.517V139.602z"/>
	<path d="M201.209,139.036c0-0.138,0.124-0.262,0.263-0.262h0.441c0.138,0,0.262,0.124,0.262,0.262v2.911
		c0,1.048,0.469,1.559,1.241,1.559c1.049,0,1.642-0.786,1.642-0.786c0-0.304,0-0.621,0-3.684c0-0.138,0.124-0.262,0.262-0.262h0.428
		c0.139,0,0.263,0.124,0.263,0.262v4.994c0,0.138-0.124,0.262-0.263,0.262h-0.262c-0.151,0-0.207-0.097-0.248-0.234l-0.097-0.359
		c0,0-0.648,0.731-1.793,0.731c-1.601,0-2.139-1.034-2.139-2.497V139.036z"/>
	<path d="M214.629,138.636c0.911,0,1.477,0.358,1.477,0.358v-4.097c0-0.138,0.124-0.263,0.262-0.263h0.428
		c0.138,0,0.262,0.125,0.262,0.263v9.132c0,0.138-0.124,0.262-0.262,0.262h-0.29c-0.124,0-0.207-0.097-0.234-0.221l-0.083-0.373
		c0,0-0.662,0.731-1.696,0.731c-1.407,0-2.511-1.324-2.511-2.91C211.98,139.905,212.974,138.636,214.629,138.636z M214.588,143.561
		c0.993,0,1.503-0.911,1.503-0.911v-2.759c0,0-0.579-0.331-1.338-0.331c-1.199,0-1.807,0.869-1.807,1.973
		C212.946,142.609,213.581,143.561,214.588,143.561z"/>
	<path d="M223.248,135.574c0-0.372,0.29-0.662,0.648-0.662c0.372,0,0.662,0.29,0.662,0.662c0,0.358-0.29,0.648-0.662,0.648
		C223.538,136.222,223.248,135.932,223.248,135.574z M223.441,139.036c0-0.138,0.124-0.262,0.262-0.262h0.428
		c0.138,0,0.263,0.124,0.263,0.262v4.994c0,0.138-0.125,0.262-0.263,0.262h-0.428c-0.138,0-0.262-0.124-0.262-0.262V139.036z"/>
	<path d="M233.109,138.636c1.531,0,2.745,1.324,2.745,2.883c0,1.586-1.214,2.91-2.745,2.91s-2.745-1.324-2.745-2.91
		C230.364,139.96,231.578,138.636,233.109,138.636z M233.109,143.533c1.007,0,1.793-0.896,1.793-2.014
		c0-1.09-0.786-1.973-1.793-1.973s-1.793,0.883-1.793,1.973C231.316,142.636,232.103,143.533,233.109,143.533z"/>
</g>
<circle fill="none" stroke="#ED317D" stroke-width="1.4018" stroke-miterlimit="10" cx="134.031" cy="43.624" r="32.065"/>
<circle fill="none" stroke="#51514F" stroke-width="1.4018" stroke-miterlimit="10" cx="106.184" cy="20.675" r="19.974"/>
<circle fill="none" stroke="#51514F" stroke-width="1.4018" stroke-miterlimit="10" cx="112.129" cy="20.495" r="16.294"/>
<circle fill="none" stroke="#ED317D" stroke-width="1.4018" stroke-miterlimit="10" cx="145.432" cy="38.547" r="34.693"/>
<ellipse fill="none" stroke="#ED317D" stroke-width="1.4018" stroke-miterlimit="10" cx="141.653" cy="37.315" rx="31.802" ry="32.065"/>
</svg>
